<svg width="27" height="23" viewBox="0 0 27 23" fill="none" xmlns="http://www.w3.org/2000/svg">
<path fill-rule="evenodd" clip-rule="evenodd" d="M2.04545 0C0.915781 0 0 0.827568 0 1.84842C0 2.86928 0.915781 3.69685 2.04545 3.69685H24.9545C26.0842 3.69685 27 2.86928 27 1.84842C27 0.827568 26.0842 0 24.9545 0H2.04545ZM0 11.4602C0 10.4394 0.915781 9.61181 2.04545 9.61181H24.9545C26.0842 9.61181 27 10.4394 27 11.4602C27 12.4811 26.0842 13.3087 24.9545 13.3087H2.04545C0.915781 13.3087 0 12.4811 0 11.4602ZM0 21.072C0 20.0512 0.915781 19.2236 2.04545 19.2236H24.9545C26.0842 19.2236 27 20.0512 27 21.072C27 22.0929 26.0842 22.9205 24.9545 22.9205H2.04545C0.915781 22.9205 0 22.0929 0 21.072Z" fill="black"/>
</svg>
