<svg width="36" height="37" viewBox="0 0 36 37" fill="none" xmlns="http://www.w3.org/2000/svg">
<g clip-path="url(#clip0_75_7142)">
<path fill-rule="evenodd" clip-rule="evenodd" d="M18 0.770874C14.065 0.770874 10.875 4.04946 10.875 8.09379C10.875 12.1381 14.065 15.4167 18 15.4167C21.935 15.4167 25.125 12.1381 25.125 8.09379C25.125 4.04946 21.935 0.770874 18 0.770874ZM13.875 8.09379C13.875 5.75233 15.7218 3.85421 18 3.85421C20.2782 3.85421 22.125 5.75233 22.125 8.09379C22.125 10.4352 20.2782 12.3334 18 12.3334C15.7218 12.3334 13.875 10.4352 13.875 8.09379Z" fill="black"/>
<path d="M2.25 28.5209C2.25 25.0944 6.20247 18.5 18 18.5C18.8284 18.5 19.5 19.1903 19.5 20.0417C19.5 20.8931 18.8284 21.5834 18 21.5834C7.29753 21.5834 5.25 27.3223 5.25 28.5209C5.25 29.3268 5.50483 29.8786 5.84191 30.225C6.17899 30.5715 6.71587 30.8334 7.5 30.8334H16.5C17.3284 30.8334 18 31.5236 18 32.375C18 33.2265 17.3284 33.9167 16.5 33.9167H7.5C6.03413 33.9167 4.69601 33.4078 3.72059 32.4053C2.74517 31.4028 2.25 30.0275 2.25 28.5209Z" fill="black"/>
<path d="M27.75 20.0417C28.5784 20.0417 29.25 20.7319 29.25 21.5834V25.4375H33C33.8284 25.4375 34.5 26.1278 34.5 26.9792C34.5 27.8306 33.8284 28.5209 33 28.5209H29.25V32.375C29.25 33.2265 28.5784 33.9167 27.75 33.9167C26.9216 33.9167 26.25 33.2265 26.25 32.375V28.5209H22.5C21.6716 28.5209 21 27.8306 21 26.9792C21 26.1278 21.6716 25.4375 22.5 25.4375H26.25V21.5834C26.25 20.7319 26.9216 20.0417 27.75 20.0417Z" fill="black"/>
</g>
<defs>
<clipPath id="clip0_75_7142">
<rect width="36" height="37" fill="white"/>
</clipPath>
</defs>
</svg>
