<svg width="20" height="19" viewBox="0 0 20 19" fill="none" xmlns="http://www.w3.org/2000/svg">
<path fill-rule="evenodd" clip-rule="evenodd" d="M8.38705 3.06771C8.39716 3.05005 8.40751 3.0324 8.4181 3.01479C8.73311 2.49109 9.19997 2.07812 9.99996 2.07812C10.7999 2.07812 11.2668 2.49109 11.5818 3.01479C11.5924 3.0324 11.6028 3.05005 11.6129 3.06771H8.38705ZM13.6449 3.06771C13.5498 2.79377 13.4106 2.46499 13.2098 2.13104C12.6914 1.26932 11.7 0.296875 9.99996 0.296875C8.29995 0.296875 7.30847 1.26932 6.79015 2.13104C6.58928 2.46499 6.45012 2.79377 6.35501 3.06771H1.66663C1.14886 3.06771 0.729126 3.46645 0.729126 3.95833C0.729126 4.45021 1.14886 4.84896 1.66663 4.84896H2.47715L3.32219 13.6796C3.37777 14.2606 3.42435 14.7474 3.49572 15.1448C3.57042 15.5607 3.68288 15.9478 3.90863 16.3099C4.25688 16.8685 4.77249 17.3159 5.38961 17.5948C5.78965 17.7756 6.20568 17.8469 6.64845 17.8799C7.07144 17.9115 7.58605 17.9115 8.20011 17.9115H11.7998C12.4139 17.9115 12.9285 17.9115 13.3515 17.8799C13.7942 17.8469 14.2103 17.7756 14.6103 17.5948C15.2274 17.3159 15.743 16.8685 16.0913 16.3099C16.317 15.9478 16.4295 15.5607 16.5042 15.1448C16.5756 14.7474 16.6221 14.2605 16.6777 13.6795L17.5228 4.84896H18.3333C18.8511 4.84896 19.2708 4.45021 19.2708 3.95833C19.2708 3.46645 18.8511 3.06771 18.3333 3.06771H13.6449ZM15.64 4.84896H4.35989L5.18623 13.4842C5.24593 14.1081 5.28649 14.525 5.344 14.8452C5.39957 15.1546 5.46009 15.3031 5.52192 15.4022C5.68021 15.6562 5.91458 15.8595 6.19509 15.9863C6.30467 16.0358 6.46581 16.0796 6.79518 16.1041C7.13607 16.1296 7.57669 16.1302 8.23615 16.1302H11.7638C12.4232 16.1302 12.8638 16.1296 13.2047 16.1041C13.5341 16.0796 13.6952 16.0358 13.8048 15.9863C14.0853 15.8595 14.3197 15.6562 14.478 15.4022C14.5398 15.3031 14.6003 15.1546 14.6559 14.8452C14.7134 14.525 14.754 14.1081 14.8137 13.4842L15.64 4.84896Z" fill="black"/>
</svg>
