<svg width="213" height="106" viewBox="0 0 213 106" fill="none" xmlns="http://www.w3.org/2000/svg">
<path d="M0 0H213V106H0V0Z" fill="#E5E5E5" fill-opacity="0.54"/>
<g clip-path="url(#clip0_3_343)">
<path fill-rule="evenodd" clip-rule="evenodd" d="M28.9167 40.4009C27.8236 40.4009 26.9375 41.2017 26.9375 42.1895C26.9375 43.1772 27.8236 43.978 28.9167 43.978H51.0833C52.1764 43.978 53.0625 43.1772 53.0625 42.1895C53.0625 41.2017 52.1764 40.4009 51.0833 40.4009H28.9167ZM26.9375 51.4898C26.9375 50.502 27.8236 49.7012 28.9167 49.7012H51.0833C52.1764 49.7012 53.0625 50.502 53.0625 51.4898C53.0625 52.4775 52.1764 53.2783 51.0833 53.2783H28.9167C27.8236 53.2783 26.9375 52.4775 26.9375 51.4898ZM26.9375 60.7901C26.9375 59.8023 27.8236 59.0016 28.9167 59.0016H51.0833C52.1764 59.0016 53.0625 59.8023 53.0625 60.7901C53.0625 61.7779 52.1764 62.5786 51.0833 62.5786H28.9167C27.8236 62.5786 26.9375 61.7779 26.9375 60.7901Z" fill="black"/>
</g>
<defs>
<clipPath id="clip0_3_343">
<rect width="38" height="34.3396" fill="white" transform="translate(21 34.3199)"/>
</clipPath>
</defs>
</svg>
