<svg width="1" height="1" viewBox="0 0 1 1" fill="none" xmlns="http://www.w3.org/2000/svg">
<g clip-path="url(#clip0_96_7910)">
<path d="M0.223028 0.546932L0.340381 0.594313C0.346975 0.576728 0.350639 0.556945 0.350639 0.537651C0.350639 0.474273 0.312539 0.416757 0.255633 0.391846L0.206787 0.508588C0.206787 0.508588 0.216312 0.51335 0.221197 0.523974C0.22657 0.535331 0.223028 0.546932 0.223028 0.546932Z" fill="#B2D0D5"/>
<path d="M0.278588 0.628568C0.278588 0.628568 0.287136 0.62063 0.294952 0.609396C0.302523 0.598405 0.307041 0.587537 0.307041 0.587537L0.220828 0.552734C0.220828 0.552734 0.219485 0.555421 0.217653 0.557863C0.215455 0.560672 0.213501 0.562504 0.213501 0.562504L0.278588 0.628568Z" fill="#80B0B9"/>
<path d="M0.168507 0.562263C0.168507 0.562263 0.164355 0.5586 0.161547 0.553105C0.158616 0.547365 0.158128 0.542359 0.158128 0.541748L0.0314941 0.54187C0.0323489 0.58461 0.0506662 0.624298 0.0805845 0.653117L0.168507 0.562263Z" fill="#036475"/>
<path d="M0.157895 0.535103H0C0.00183173 0.430084 0.086946 0.346924 0.191477 0.346924C0.216388 0.346924 0.240445 0.351931 0.262303 0.360601L0.201368 0.506284C0.201368 0.506284 0.195262 0.504575 0.191599 0.504697C0.174625 0.505063 0.159727 0.51642 0.157895 0.535103Z" fill="#34818F"/>
<path d="M0.457531 0.573756C0.451425 0.573756 0.446052 0.572291 0.441533 0.569482C0.437015 0.566551 0.433596 0.562521 0.431154 0.557393C0.428711 0.552142 0.42749 0.546036 0.42749 0.539075C0.42749 0.531993 0.428711 0.525887 0.431154 0.520758C0.433596 0.515507 0.437137 0.511477 0.441533 0.508669C0.446052 0.505738 0.451303 0.504395 0.457531 0.504395C0.463758 0.504395 0.469009 0.50586 0.473528 0.508669C0.478046 0.511599 0.481465 0.515629 0.483907 0.520758C0.48635 0.526009 0.487571 0.532115 0.487571 0.539075C0.487571 0.546158 0.48635 0.552264 0.483907 0.557393C0.481465 0.562643 0.477924 0.566673 0.473528 0.569482C0.469009 0.572291 0.463636 0.573756 0.457531 0.573756ZM0.457531 0.568261C0.46498 0.568261 0.470841 0.565696 0.475115 0.560568C0.479389 0.555439 0.481587 0.548234 0.481587 0.538953C0.481587 0.529672 0.479389 0.522468 0.475115 0.517339C0.470841 0.51221 0.46498 0.509645 0.457531 0.509645C0.450204 0.509645 0.444342 0.51221 0.439946 0.517339C0.43555 0.522468 0.433352 0.529672 0.433352 0.538953C0.433352 0.548234 0.43555 0.555439 0.439946 0.560568C0.444342 0.565696 0.450204 0.568261 0.457531 0.568261Z" fill="#010202"/>
<path d="M0.505616 0.598423C0.503662 0.598423 0.502686 0.597446 0.502686 0.59537V0.507447C0.502686 0.505372 0.503662 0.504395 0.505616 0.504395C0.50757 0.504395 0.508547 0.505372 0.508547 0.507447V0.518438C0.510623 0.514042 0.513676 0.5105 0.517828 0.507936C0.52198 0.505372 0.526864 0.50415 0.532604 0.50415C0.53871 0.50415 0.54396 0.505616 0.548479 0.508424C0.552875 0.511233 0.556416 0.515263 0.558859 0.520514C0.561301 0.525765 0.562522 0.531871 0.562522 0.539075C0.562522 0.549699 0.559835 0.558247 0.554462 0.564475C0.549089 0.570703 0.541762 0.573878 0.532604 0.573878C0.526986 0.573878 0.52198 0.572657 0.517828 0.570093C0.513676 0.567528 0.510501 0.563987 0.508547 0.559591V0.595615C0.508547 0.597324 0.50757 0.598423 0.505616 0.598423ZM0.532482 0.568139C0.539931 0.568139 0.545792 0.565574 0.550066 0.560446C0.55434 0.555317 0.556538 0.548112 0.556538 0.538831C0.556538 0.52955 0.55434 0.522346 0.550066 0.517217C0.545792 0.512088 0.539931 0.509523 0.532482 0.509523C0.525155 0.509523 0.519293 0.512088 0.514897 0.517217C0.510501 0.522346 0.508303 0.52955 0.508303 0.538831C0.508303 0.548112 0.510501 0.555317 0.514897 0.560446C0.519293 0.565574 0.525155 0.568139 0.532482 0.568139Z" fill="#010202"/>
<path d="M0.608044 0.573756C0.598031 0.573756 0.590093 0.570703 0.584354 0.564475C0.578492 0.558247 0.575684 0.549821 0.575684 0.539197C0.575684 0.532115 0.577027 0.526009 0.579591 0.520758C0.582278 0.515507 0.585941 0.511477 0.590582 0.508547C0.595222 0.505616 0.600717 0.50415 0.606823 0.50415C0.615493 0.50415 0.622332 0.506959 0.627094 0.512698C0.631979 0.518438 0.634299 0.526375 0.634299 0.536389C0.634299 0.538831 0.633322 0.540052 0.631246 0.540052H0.581545C0.581789 0.549089 0.58411 0.556049 0.588628 0.560934C0.593146 0.565819 0.599496 0.568261 0.607678 0.568261C0.611341 0.568261 0.614883 0.567772 0.618058 0.566795C0.621355 0.565819 0.62453 0.564109 0.627705 0.561545C0.628926 0.560568 0.630025 0.560323 0.631002 0.56069C0.631979 0.561056 0.632589 0.561789 0.632834 0.562766C0.633078 0.563743 0.632589 0.564842 0.631368 0.565819C0.628437 0.568261 0.625018 0.570093 0.620744 0.571558C0.616714 0.573023 0.61244 0.573756 0.608044 0.573756ZM0.606701 0.509401C0.59913 0.509401 0.593268 0.511844 0.589116 0.516606C0.584842 0.521491 0.5824 0.527474 0.581789 0.534801H0.628926C0.628682 0.526864 0.626606 0.520636 0.622942 0.516118C0.619279 0.511722 0.613784 0.509401 0.606701 0.509401Z" fill="#010202"/>
<path d="M0.65442 0.573512C0.652466 0.573512 0.651489 0.572535 0.651489 0.570459V0.50757C0.651489 0.505494 0.652466 0.504517 0.65442 0.504517C0.656252 0.504517 0.657229 0.505494 0.657229 0.50757V0.517827C0.659427 0.513309 0.662724 0.50989 0.666876 0.50757C0.67115 0.505249 0.67579 0.50415 0.681041 0.50415C0.697038 0.50415 0.705098 0.512698 0.705098 0.529795V0.570459C0.705098 0.572535 0.704121 0.573512 0.702167 0.573512C0.700213 0.573512 0.699236 0.572535 0.699236 0.570459V0.530405C0.699236 0.5232 0.697771 0.518072 0.694962 0.514652C0.692031 0.511355 0.687391 0.509646 0.681041 0.509646C0.673836 0.509646 0.668219 0.511844 0.663823 0.51624C0.659549 0.520636 0.657351 0.52662 0.657351 0.533947V0.570459C0.657351 0.572413 0.656374 0.573512 0.65442 0.573512Z" fill="#010202"/>
<path d="M0.728639 0.569982C0.726319 0.567662 0.72522 0.564609 0.72522 0.560701V0.486211C0.72522 0.482425 0.726319 0.479372 0.728639 0.477052C0.730959 0.474732 0.734012 0.473633 0.73792 0.473633C0.741949 0.473633 0.745124 0.474732 0.747445 0.477052C0.749765 0.479372 0.750986 0.482425 0.750986 0.486211V0.560701C0.750986 0.564609 0.749765 0.567662 0.747445 0.569982C0.745124 0.572302 0.741949 0.573401 0.73792 0.573401C0.734012 0.573401 0.730959 0.57218 0.728639 0.569982Z" fill="#010202"/>
<path d="M0.864415 0.477174C0.866613 0.479494 0.867712 0.482547 0.867712 0.486211V0.561922C0.867712 0.565463 0.866735 0.568272 0.864659 0.570226C0.862583 0.572302 0.859897 0.573279 0.8566 0.573279C0.853303 0.573279 0.850738 0.572302 0.84854 0.570226C0.846464 0.56815 0.845365 0.565341 0.845365 0.561922V0.521014L0.82949 0.550199C0.827903 0.55313 0.826193 0.555328 0.824483 0.556549C0.822774 0.55777 0.820576 0.558381 0.818256 0.558381C0.815813 0.558381 0.813737 0.55777 0.812028 0.556549C0.810318 0.555328 0.808608 0.55313 0.807021 0.550199L0.791268 0.521746V0.5618C0.791268 0.565219 0.790169 0.568028 0.788093 0.570104C0.786017 0.57218 0.783331 0.573279 0.779911 0.573279C0.776614 0.573279 0.77405 0.572302 0.771852 0.570226C0.769776 0.56815 0.768677 0.565341 0.768677 0.561922V0.486211C0.768677 0.482547 0.769776 0.479494 0.772096 0.477174C0.774416 0.474854 0.777225 0.473633 0.780766 0.473633C0.783331 0.473633 0.785529 0.474366 0.787605 0.475831C0.789681 0.477296 0.79139 0.479372 0.792733 0.482059L0.818378 0.530172L0.8439 0.482059C0.84683 0.476441 0.850616 0.473755 0.855623 0.473755C0.859286 0.473633 0.862217 0.474854 0.864415 0.477174Z" fill="#010202"/>
<path d="M0.885988 0.569982C0.883667 0.567662 0.882568 0.564609 0.882568 0.560701V0.486211C0.882568 0.482425 0.883667 0.479372 0.885988 0.477052C0.888308 0.474732 0.891361 0.473633 0.895268 0.473633C0.899298 0.473633 0.902473 0.474732 0.904793 0.477052C0.907114 0.479372 0.908213 0.482425 0.908213 0.486211V0.560701C0.908213 0.564609 0.906991 0.567662 0.904793 0.569982C0.902473 0.572302 0.899298 0.573401 0.895268 0.573401C0.891361 0.573401 0.888308 0.57218 0.885988 0.569982Z" fill="#010202"/>
<path d="M0.938118 0.571325C0.931768 0.569738 0.926517 0.567417 0.922487 0.564609C0.9209 0.563388 0.9198 0.562167 0.919068 0.560823C0.918335 0.55948 0.917969 0.557892 0.917969 0.555817C0.917969 0.553008 0.918824 0.550566 0.920533 0.548612C0.922243 0.546536 0.924197 0.545559 0.926395 0.545559C0.927616 0.545559 0.928715 0.545803 0.929814 0.546169C0.930913 0.546536 0.932378 0.547268 0.933966 0.548245C0.937751 0.550321 0.941537 0.551909 0.945323 0.552886C0.949108 0.553863 0.953382 0.554229 0.958023 0.554229C0.963518 0.554229 0.96767 0.553374 0.970478 0.551787C0.973287 0.550199 0.974752 0.547757 0.974752 0.544582C0.974752 0.542506 0.973409 0.540674 0.970845 0.539087C0.96828 0.537499 0.963151 0.536034 0.955702 0.534568C0.946544 0.532615 0.939339 0.530294 0.934088 0.527608C0.928837 0.524921 0.925296 0.521746 0.92322 0.518083C0.921144 0.514419 0.920045 0.510023 0.920045 0.504772C0.920045 0.498789 0.921754 0.493416 0.925296 0.488653C0.928837 0.483769 0.933722 0.480105 0.939827 0.477296C0.946055 0.47461 0.952894 0.473145 0.960587 0.473145C0.967303 0.473145 0.973409 0.473877 0.97866 0.475343C0.983911 0.476808 0.988796 0.479128 0.993192 0.482303C0.994901 0.483524 0.996 0.484745 0.996733 0.486089C0.997466 0.487432 0.997832 0.489142 0.997832 0.490973C0.997832 0.493782 0.996977 0.496224 0.99539 0.498178C0.993802 0.500254 0.991848 0.501231 0.98965 0.501231C0.988429 0.501231 0.98733 0.501109 0.986353 0.500743C0.985376 0.500376 0.983911 0.499644 0.982079 0.498544C0.981591 0.4983 0.980247 0.497568 0.978172 0.496346C0.975973 0.495125 0.973409 0.49427 0.970478 0.493538C0.967548 0.492805 0.964373 0.492439 0.960953 0.492439C0.956191 0.492439 0.952405 0.493294 0.949597 0.495125C0.946666 0.496957 0.945323 0.499277 0.945323 0.50233C0.945323 0.50404 0.945811 0.505505 0.94691 0.506604C0.947887 0.507703 0.949841 0.508802 0.952649 0.509901C0.955458 0.511 0.95961 0.512099 0.964983 0.513198C0.973898 0.515152 0.980858 0.517472 0.985987 0.520281C0.991116 0.522968 0.994657 0.526143 0.996855 0.529806C0.998931 0.533469 1.00003 0.537743 1.00003 0.542628C1.00003 0.548734 0.998321 0.554107 0.994901 0.558869C0.991482 0.56351 0.98672 0.567173 0.980492 0.569738C0.974264 0.572302 0.967181 0.573523 0.958999 0.573523C0.951306 0.573767 0.944468 0.572913 0.938118 0.571325Z" fill="#010202"/>
</g>
<defs>
<clipPath id="clip0_96_7910">
<rect width="1" height="1" fill="white"/>
</clipPath>
</defs>
</svg>
