<svg width="1" height="1" viewBox="0 0 1 1" fill="none" xmlns="http://www.w3.org/2000/svg">
<g clip-path="url(#clip0_75_7828)">
<path d="M0.222967 0.547054L0.34032 0.594435C0.346914 0.57685 0.350578 0.557068 0.350578 0.537773C0.350578 0.474396 0.312478 0.416879 0.255572 0.391968L0.206726 0.50871C0.206726 0.50871 0.216251 0.513472 0.221136 0.524096C0.226509 0.535453 0.222967 0.547054 0.222967 0.547054Z" fill="#B2D0D5"/>
<path d="M0.278527 0.628446C0.278527 0.628446 0.287075 0.620508 0.294891 0.609274C0.302462 0.598283 0.30698 0.587415 0.30698 0.587415L0.220767 0.552612C0.220767 0.552612 0.219424 0.555299 0.217592 0.557741C0.215394 0.56055 0.21344 0.562382 0.21344 0.562382L0.278527 0.628446Z" fill="#80B0B9"/>
<path d="M0.168507 0.562263C0.168507 0.562263 0.164355 0.5586 0.161547 0.553105C0.158616 0.547365 0.158128 0.542359 0.158128 0.541748L0.0314941 0.54187C0.0323489 0.58461 0.0506662 0.624298 0.0805845 0.653117L0.168507 0.562263Z" fill="#036475"/>
<path d="M0.157895 0.535103H0C0.00183173 0.430084 0.086946 0.346924 0.191477 0.346924C0.216388 0.346924 0.240445 0.351931 0.262303 0.360601L0.201368 0.506284C0.201368 0.506284 0.195262 0.504575 0.191599 0.504697C0.174625 0.505063 0.159727 0.51642 0.157895 0.535103Z" fill="#34818F"/>
<path d="M0.457592 0.573634C0.451486 0.573634 0.446113 0.572168 0.441595 0.56936C0.437076 0.566429 0.433657 0.562399 0.431215 0.55727C0.428772 0.552019 0.427551 0.545914 0.427551 0.538953C0.427551 0.53187 0.428772 0.525765 0.431215 0.520636C0.433657 0.515385 0.437198 0.511355 0.441595 0.508546C0.446113 0.505616 0.451364 0.504272 0.457592 0.504272C0.463819 0.504272 0.46907 0.505738 0.473589 0.508546C0.478107 0.511477 0.481526 0.515507 0.483968 0.520636C0.486411 0.525887 0.487632 0.531993 0.487632 0.538953C0.487632 0.546036 0.486411 0.552142 0.483968 0.55727C0.481526 0.562521 0.477985 0.566551 0.473589 0.56936C0.46907 0.572168 0.463697 0.573634 0.457592 0.573634ZM0.457592 0.568139C0.465041 0.568139 0.470902 0.565574 0.475176 0.560445C0.47945 0.555317 0.481648 0.548112 0.481648 0.538831C0.481648 0.52955 0.47945 0.522345 0.475176 0.517217C0.470902 0.512088 0.465041 0.509523 0.457592 0.509523C0.450265 0.509523 0.444403 0.512088 0.440007 0.517217C0.435611 0.522345 0.433413 0.52955 0.433413 0.538831C0.433413 0.548112 0.435611 0.555317 0.440007 0.560445C0.444403 0.565574 0.450265 0.568139 0.457592 0.568139Z" fill="#010202"/>
<path d="M0.505555 0.598423C0.503601 0.598423 0.502625 0.597446 0.502625 0.59537V0.507447C0.502625 0.505372 0.503601 0.504395 0.505555 0.504395C0.507509 0.504395 0.508486 0.505372 0.508486 0.507447V0.518438C0.510562 0.514042 0.513615 0.5105 0.517767 0.507936C0.521919 0.505372 0.526803 0.50415 0.532543 0.50415C0.538648 0.50415 0.543899 0.505616 0.548418 0.508424C0.552814 0.511233 0.556355 0.515263 0.558798 0.520514C0.56124 0.525765 0.562461 0.531871 0.562461 0.539075C0.562461 0.549699 0.559774 0.558247 0.554401 0.564475C0.549028 0.570703 0.541701 0.573878 0.532543 0.573878C0.526925 0.573878 0.521919 0.572657 0.517767 0.570093C0.513615 0.567528 0.51044 0.563987 0.508486 0.559591V0.595615C0.508486 0.597324 0.507509 0.598423 0.505555 0.598423ZM0.532421 0.568139C0.53987 0.568139 0.545731 0.565574 0.550005 0.560446C0.554279 0.555317 0.556477 0.548112 0.556477 0.538831C0.556477 0.52955 0.554279 0.522346 0.550005 0.517217C0.545731 0.512088 0.53987 0.509523 0.532421 0.509523C0.525094 0.509523 0.519232 0.512088 0.514836 0.517217C0.51044 0.522346 0.508242 0.52955 0.508242 0.538831C0.508242 0.548112 0.51044 0.555317 0.514836 0.560446C0.519232 0.565574 0.525094 0.568139 0.532421 0.568139Z" fill="#010202"/>
<path d="M0.607983 0.573634C0.59797 0.573634 0.590032 0.570581 0.584293 0.564353C0.578431 0.558125 0.575623 0.549699 0.575623 0.539075C0.575623 0.531993 0.576966 0.525887 0.57953 0.520636C0.582217 0.515385 0.58588 0.511355 0.590521 0.508424C0.595161 0.505494 0.600656 0.504028 0.606762 0.504028C0.615432 0.504028 0.622271 0.506837 0.627033 0.512576C0.631918 0.518316 0.634238 0.526253 0.634238 0.536267C0.634238 0.538709 0.633261 0.53993 0.631185 0.53993H0.581484C0.581728 0.548967 0.584049 0.555927 0.588567 0.560812C0.593085 0.565696 0.599435 0.568139 0.607617 0.568139C0.61128 0.568139 0.614822 0.56765 0.617997 0.566673C0.621294 0.565697 0.624469 0.563987 0.627644 0.561422C0.628865 0.560446 0.629964 0.560201 0.630941 0.560568C0.631918 0.560934 0.632528 0.561667 0.632772 0.562644C0.633017 0.563621 0.632528 0.56472 0.631307 0.565696C0.628376 0.568139 0.624957 0.569971 0.620683 0.571436C0.616653 0.572901 0.612379 0.573634 0.607983 0.573634ZM0.60664 0.509279C0.599069 0.509279 0.593207 0.511722 0.589055 0.516484C0.584781 0.521369 0.582339 0.527352 0.581728 0.534679H0.628865C0.628621 0.526742 0.626545 0.520514 0.622881 0.515996C0.619218 0.511599 0.613722 0.509279 0.60664 0.509279Z" fill="#010202"/>
<path d="M0.65442 0.57339C0.652466 0.57339 0.651489 0.572413 0.651489 0.570337V0.507448C0.651489 0.505372 0.652466 0.504395 0.65442 0.504395C0.656252 0.504395 0.657229 0.505372 0.657229 0.507448V0.517705C0.659427 0.513187 0.662724 0.509768 0.666876 0.507448C0.67115 0.505127 0.67579 0.504028 0.681041 0.504028C0.697038 0.504028 0.705098 0.512576 0.705098 0.529673V0.570337C0.705098 0.572413 0.704121 0.57339 0.702167 0.57339C0.700213 0.57339 0.699236 0.572413 0.699236 0.570337V0.530283C0.699236 0.523078 0.697771 0.517949 0.694962 0.51453C0.692031 0.511233 0.687391 0.509524 0.681041 0.509524C0.673836 0.509524 0.668219 0.511722 0.663823 0.516118C0.659549 0.520514 0.657351 0.526498 0.657351 0.533824V0.570337C0.657351 0.572291 0.656374 0.57339 0.65442 0.57339Z" fill="#010202"/>
<path d="M0.728639 0.569982C0.726319 0.567662 0.72522 0.564609 0.72522 0.560701V0.486211C0.72522 0.482425 0.726319 0.479372 0.728639 0.477052C0.730959 0.474732 0.734012 0.473633 0.73792 0.473633C0.741949 0.473633 0.745124 0.474732 0.747445 0.477052C0.749765 0.479372 0.750986 0.482425 0.750986 0.486211V0.560701C0.750986 0.564609 0.749765 0.567662 0.747445 0.569982C0.745124 0.572302 0.741949 0.573401 0.73792 0.573401C0.734012 0.573401 0.730959 0.57218 0.728639 0.569982Z" fill="#010202"/>
<path d="M0.864476 0.477174C0.866674 0.479494 0.867773 0.482547 0.867773 0.486211V0.561922C0.867773 0.565463 0.866796 0.568272 0.86472 0.570226C0.862644 0.572302 0.859958 0.573279 0.856661 0.573279C0.853364 0.573279 0.850799 0.572302 0.848601 0.570226C0.846525 0.56815 0.845426 0.565341 0.845426 0.561922V0.521014L0.829551 0.550199C0.827964 0.55313 0.826254 0.555328 0.824544 0.556549C0.822835 0.55777 0.820637 0.558381 0.818317 0.558381C0.815874 0.558381 0.813798 0.55777 0.812089 0.556549C0.810379 0.555328 0.808669 0.55313 0.807082 0.550199L0.791329 0.521746V0.5618C0.791329 0.565219 0.79023 0.568028 0.788154 0.570104C0.786078 0.57218 0.783392 0.573279 0.779972 0.573279C0.776675 0.573279 0.774111 0.572302 0.771913 0.570226C0.769837 0.56815 0.768738 0.565341 0.768738 0.561922V0.486211C0.768738 0.482547 0.769837 0.479494 0.772157 0.477174C0.774477 0.474854 0.777286 0.473633 0.780827 0.473633C0.783392 0.473633 0.78559 0.474366 0.787666 0.475831C0.789742 0.477296 0.791451 0.479372 0.792795 0.482059L0.818439 0.530172L0.843961 0.482059C0.846891 0.476441 0.850677 0.473755 0.855684 0.473755C0.859347 0.473633 0.862278 0.474854 0.864476 0.477174Z" fill="#010202"/>
<path d="M0.885927 0.569982C0.883606 0.567662 0.882507 0.564609 0.882507 0.560701V0.486211C0.882507 0.482425 0.883606 0.479372 0.885927 0.477052C0.888247 0.474732 0.8913 0.473633 0.895207 0.473633C0.899237 0.473633 0.902412 0.474732 0.904732 0.477052C0.907052 0.479372 0.908152 0.482425 0.908152 0.486211V0.560701C0.908152 0.564609 0.90693 0.567662 0.904732 0.569982C0.902412 0.572302 0.899237 0.573401 0.895207 0.573401C0.8913 0.573401 0.888247 0.57218 0.885927 0.569982Z" fill="#010202"/>
<path d="M0.938118 0.571325C0.931768 0.569738 0.926517 0.567417 0.922487 0.564609C0.9209 0.563388 0.9198 0.562167 0.919068 0.560823C0.918335 0.55948 0.917969 0.557892 0.917969 0.555817C0.917969 0.553008 0.918824 0.550566 0.920533 0.548612C0.922243 0.546536 0.924197 0.545559 0.926395 0.545559C0.927616 0.545559 0.928715 0.545803 0.929814 0.546169C0.930913 0.546536 0.932378 0.547268 0.933966 0.548245C0.937751 0.550321 0.941537 0.551909 0.945323 0.552886C0.949108 0.553863 0.953382 0.554229 0.958023 0.554229C0.963518 0.554229 0.96767 0.553374 0.970478 0.551787C0.973287 0.550199 0.974752 0.547757 0.974752 0.544582C0.974752 0.542506 0.973409 0.540674 0.970845 0.539087C0.96828 0.537499 0.963151 0.536034 0.955702 0.534568C0.946544 0.532615 0.939339 0.530294 0.934088 0.527608C0.928837 0.524921 0.925296 0.521746 0.92322 0.518083C0.921144 0.514419 0.920045 0.510023 0.920045 0.504772C0.920045 0.498789 0.921754 0.493416 0.925296 0.488653C0.928837 0.483769 0.933722 0.480105 0.939827 0.477296C0.946055 0.47461 0.952894 0.473145 0.960587 0.473145C0.967303 0.473145 0.973409 0.473877 0.97866 0.475343C0.983911 0.476808 0.988796 0.479128 0.993192 0.482303C0.994901 0.483524 0.996 0.484745 0.996733 0.486089C0.997466 0.487432 0.997832 0.489142 0.997832 0.490973C0.997832 0.493782 0.996977 0.496224 0.99539 0.498178C0.993802 0.500254 0.991848 0.501231 0.98965 0.501231C0.988429 0.501231 0.98733 0.501109 0.986353 0.500743C0.985376 0.500376 0.983911 0.499644 0.982079 0.498544C0.981591 0.4983 0.980247 0.497568 0.978172 0.496346C0.975973 0.495125 0.973409 0.49427 0.970478 0.493538C0.967548 0.492805 0.964373 0.492439 0.960953 0.492439C0.956191 0.492439 0.952405 0.493294 0.949597 0.495125C0.946666 0.496957 0.945323 0.499277 0.945323 0.50233C0.945323 0.50404 0.945811 0.505505 0.94691 0.506604C0.947887 0.507703 0.949841 0.508802 0.952649 0.509901C0.955458 0.511 0.95961 0.512099 0.964983 0.513198C0.973898 0.515152 0.980858 0.517472 0.985987 0.520281C0.991116 0.522968 0.994657 0.526143 0.996855 0.529806C0.998931 0.533469 1.00003 0.537743 1.00003 0.542628C1.00003 0.548734 0.998321 0.554107 0.994901 0.558869C0.991482 0.56351 0.98672 0.567173 0.980492 0.569738C0.974264 0.572302 0.967181 0.573523 0.958999 0.573523C0.951306 0.573767 0.944468 0.572913 0.938118 0.571325Z" fill="#010202"/>
</g>
<defs>
<clipPath id="clip0_75_7828">
<rect width="1" height="1" fill="white"/>
</clipPath>
</defs>
</svg>
