<svg width="46" height="46" viewBox="0 0 46 46" fill="none" xmlns="http://www.w3.org/2000/svg">
<g filter="url(#filter0_d_0_1623)">
<path d="M1 22C1 9.84974 10.8497 0 23 0V0C35.1503 0 45 9.84974 45 22V22C45 34.1503 35.1503 44 23 44V44C10.8497 44 1 34.1503 1 22V22Z" fill="white"/>
<path fill-rule="evenodd" clip-rule="evenodd" d="M24.2191 23.0239C22.4678 24.425 20.3233 26.5583 18.882 29.4411L21.118 30.5591C22.3434 28.1083 24.1989 26.2417 25.7809 24.9761C26.5674 24.3469 27.2741 23.876 27.7801 23.5646C28.0327 23.4092 28.2343 23.2941 28.3694 23.2196C28.437 23.1823 28.4879 23.1552 28.5201 23.1383L28.5543 23.1206L28.559 23.1181L28.5596 23.1178C28.5596 23.1178 28.5595 23.1179 28.559 23.1169L28.559 20.8833C28.5596 20.8823 28.5596 20.8823 28.5596 20.8823L28.559 20.8821L28.5543 20.8796L28.5201 20.8619C28.4879 20.845 28.437 20.8179 28.3695 20.7806C28.2343 20.706 28.0328 20.591 27.7801 20.4355C27.2741 20.1241 26.5674 19.6532 25.7809 19.024C24.1989 17.7584 22.3434 15.8917 21.118 13.4409L18.882 14.5589C20.3233 17.4417 22.4677 19.575 24.2191 20.9761C24.7151 21.373 25.1836 21.7142 25.6013 22.0001C25.1836 22.2859 24.7151 22.6271 24.2191 23.0239Z" fill="black"/>
</g>
<defs>
<filter id="filter0_d_0_1623" x="0" y="0" width="46" height="46" filterUnits="userSpaceOnUse" color-interpolation-filters="sRGB">
<feFlood flood-opacity="0" result="BackgroundImageFix"/>
<feColorMatrix in="SourceAlpha" type="matrix" values="0 0 0 0 0 0 0 0 0 0 0 0 0 0 0 0 0 0 127 0" result="hardAlpha"/>
<feOffset dy="1"/>
<feGaussianBlur stdDeviation="0.5"/>
<feColorMatrix type="matrix" values="0 0 0 0 0 0 0 0 0 0.0556863 0 0 0 0 0.2 0 0 0 0.05 0"/>
<feBlend mode="normal" in2="BackgroundImageFix" result="effect1_dropShadow_0_1623"/>
<feBlend mode="normal" in="SourceGraphic" in2="effect1_dropShadow_0_1623" result="shape"/>
</filter>
</defs>
</svg>
