<svg width="377" height="232" viewBox="0 0 377 232" fill="none" xmlns="http://www.w3.org/2000/svg">
<rect width="377" height="232" rx="10" fill="#EFBC53"/>
<g clip-path="url(#clip0_67_6888)">
<path fill-rule="evenodd" clip-rule="evenodd" d="M150.719 67.8469C150.719 53.517 162.924 41.9004 177.979 41.9004C193.035 41.9004 205.24 53.517 205.24 67.8469C205.24 82.1768 193.035 93.7934 177.979 93.7934C162.924 93.7934 150.719 82.1768 150.719 67.8469ZM177.979 27.0286C154.294 27.0286 135.094 45.3036 135.094 67.8469C135.094 90.3902 154.294 108.665 177.979 108.665C186.999 108.665 195.369 106.015 202.275 101.488L227.57 125.563C230.621 128.467 235.567 128.467 238.618 125.563C241.669 122.659 241.669 117.951 238.618 115.047L213.324 90.9716C218.08 84.3981 220.865 76.432 220.865 67.8469C220.865 45.3036 201.664 27.0286 177.979 27.0286Z" fill="black"/>
</g>
<defs>
<clipPath id="clip0_67_6888">
<rect width="150" height="142.769" fill="white" transform="translate(113 6)"/>
</clipPath>
</defs>
</svg>
