<svg width="24" height="20" viewBox="0 0 24 20" fill="none" xmlns="http://www.w3.org/2000/svg">
<path fill-rule="evenodd" clip-rule="evenodd" d="M16.3041 1.20116C17.0698 0.936853 17.9302 0.936853 18.6959 1.20116C19.0396 1.3198 19.3196 1.49314 19.5736 1.67772C19.8135 1.8521 20.0838 2.07736 20.392 2.33425L21.199 3.00674C21.5073 3.26361 21.7776 3.48885 21.9868 3.68877C22.2083 3.90039 22.4163 4.13375 22.5587 4.42017C22.8759 5.05826 22.8759 5.77522 22.5587 6.41331C22.4163 6.69973 22.2083 6.93309 21.9868 7.14471C21.7776 7.34461 21.5073 7.56984 21.199 7.82669L11.7889 15.6685C9.34111 17.7083 6.02127 18.8542 2.55964 18.8542C1.90538 18.8542 1.375 18.4123 1.375 17.867C1.375 14.9823 2.75013 12.2158 5.19787 10.176L14.608 2.33428C14.9162 2.07737 15.1865 1.85211 15.4264 1.67772C15.6804 1.49314 15.9604 1.3198 16.3041 1.20116ZM17.8348 2.93343C17.6204 2.85943 17.3796 2.85943 17.1652 2.93343C17.1413 2.94166 17.0728 2.96904 16.9054 3.09073C16.7304 3.21796 16.5145 3.39712 16.1742 3.68075L15.591 4.16674L19 7.00758L19.5832 6.52159C19.9235 6.23797 20.1385 6.05808 20.2912 5.91221C20.4372 5.77271 20.4701 5.71565 20.48 5.69578C20.5688 5.51711 20.5688 5.31637 20.48 5.1377C20.4701 5.11783 20.4372 5.06078 20.2912 4.92127C20.1385 4.7754 19.9235 4.59551 19.5832 4.31189L18.8258 3.68075C18.4855 3.39712 18.2696 3.21796 18.0946 3.09073C17.9272 2.96904 17.8587 2.94166 17.8348 2.93343ZM17.409 8.33341L14 5.49257L6.78886 11.5018C5.02976 12.9678 3.94003 14.8872 3.6836 16.9304C6.13542 16.7167 8.43877 15.8086 10.1979 14.3427L17.409 8.33341Z" fill="black"/>
</svg>
