<svg width="122" height="113" viewBox="0 0 122 113" fill="none" xmlns="http://www.w3.org/2000/svg">
<g clip-path="url(#clip0_56_9498)">
<path fill-rule="evenodd" clip-rule="evenodd" d="M61 2.35413C47.6646 2.35413 36.8542 12.3671 36.8542 24.7187C36.8542 37.0703 47.6646 47.0833 61 47.0833C74.3354 47.0833 85.1458 37.0703 85.1458 24.7187C85.1458 12.3671 74.3354 2.35413 61 2.35413ZM47.0208 24.7187C47.0208 17.5678 53.2795 11.7708 61 11.7708C68.7205 11.7708 74.9792 17.5678 74.9792 24.7187C74.9792 31.8696 68.7205 37.6666 61 37.6666C53.2795 37.6666 47.0208 31.8696 47.0208 24.7187Z" fill="black"/>
<path d="M7.625 87.1041C7.625 76.6396 21.0195 56.5 61 56.5C63.8074 56.5 66.0833 58.608 66.0833 61.2083C66.0833 63.8086 63.8074 65.9166 61 65.9166C24.7305 65.9166 17.7917 83.4437 17.7917 87.1041C17.7917 89.5654 18.6553 91.2506 19.7976 92.3087C20.9399 93.3668 22.7593 94.1666 25.4167 94.1666H55.9167C58.7241 94.1666 61 96.2746 61 98.875C61 101.475 58.7241 103.583 55.9167 103.583H25.4167C20.449 103.583 15.9143 102.029 12.6087 98.9673C9.30308 95.9055 7.625 91.7053 7.625 87.1041Z" fill="black"/>
<path d="M94.0417 61.2083C96.8491 61.2083 99.125 63.3163 99.125 65.9166V77.6875H111.833C114.641 77.6875 116.917 79.7955 116.917 82.3958C116.917 84.9961 114.641 87.1041 111.833 87.1041H99.125V98.875C99.125 101.475 96.8491 103.583 94.0417 103.583C91.2342 103.583 88.9583 101.475 88.9583 98.875V87.1041H76.25C73.4425 87.1041 71.1667 84.9961 71.1667 82.3958C71.1667 79.7955 73.4425 77.6875 76.25 77.6875H88.9583V65.9166C88.9583 63.3163 91.2342 61.2083 94.0417 61.2083Z" fill="black"/>
</g>
<defs>
<clipPath id="clip0_56_9498">
<rect width="122" height="113" fill="white"/>
</clipPath>
</defs>
</svg>
