<svg width="1" height="1" viewBox="0 0 1 1" fill="none" xmlns="http://www.w3.org/2000/svg">
<g clip-path="url(#clip0_102_9338)">
<path d="M0.222967 0.546932L0.34032 0.594313C0.346914 0.576728 0.350578 0.556945 0.350578 0.537651C0.350578 0.474273 0.312478 0.416757 0.255572 0.391846L0.206726 0.508588C0.206726 0.508588 0.216251 0.51335 0.221136 0.523974C0.226509 0.535331 0.222967 0.546932 0.222967 0.546932Z" fill="#B2D0D5"/>
<path d="M0.278558 0.628568C0.278558 0.628568 0.287106 0.62063 0.294921 0.609396C0.302492 0.598405 0.307011 0.587537 0.307011 0.587537L0.220797 0.552734C0.220797 0.552734 0.219454 0.555421 0.217622 0.557863C0.215424 0.560672 0.21347 0.562504 0.21347 0.562504L0.278558 0.628568Z" fill="#80B0B9"/>
<path d="M0.168507 0.562263C0.168507 0.562263 0.164355 0.5586 0.161547 0.553105C0.158616 0.547365 0.158128 0.542359 0.158128 0.541748L0.0314941 0.54187C0.0323489 0.58461 0.0506662 0.624298 0.0805845 0.653117L0.168507 0.562263Z" fill="#036475"/>
<path d="M0.157895 0.535103H0C0.00183173 0.430084 0.086946 0.346924 0.191477 0.346924C0.216388 0.346924 0.240445 0.351931 0.262303 0.360601L0.201368 0.506284C0.201368 0.506284 0.195262 0.504575 0.191599 0.504697C0.174625 0.505063 0.159727 0.51642 0.157895 0.535103Z" fill="#34818F"/>
<path d="M0.457561 0.573756C0.451455 0.573756 0.446082 0.572291 0.441564 0.569482C0.437046 0.566551 0.433627 0.562521 0.431184 0.557393C0.428742 0.552142 0.427521 0.546036 0.427521 0.539075C0.427521 0.531993 0.428742 0.525887 0.431184 0.520758C0.433627 0.515507 0.437168 0.511477 0.441564 0.508669C0.446082 0.505738 0.451333 0.504395 0.457561 0.504395C0.463789 0.504395 0.46904 0.50586 0.473558 0.508669C0.478076 0.511599 0.481496 0.515629 0.483938 0.520758C0.48638 0.526009 0.487601 0.532115 0.487601 0.539075C0.487601 0.546158 0.48638 0.552264 0.483938 0.557393C0.481496 0.562643 0.477954 0.566673 0.473558 0.569482C0.46904 0.572291 0.463667 0.573756 0.457561 0.573756ZM0.457561 0.568261C0.46501 0.568261 0.470872 0.565696 0.475146 0.560568C0.47942 0.555439 0.481618 0.548234 0.481618 0.538953C0.481618 0.529672 0.47942 0.522468 0.475146 0.517339C0.470872 0.51221 0.46501 0.509645 0.457561 0.509645C0.450234 0.509645 0.444373 0.51221 0.439976 0.517339C0.43558 0.522468 0.433382 0.529672 0.433382 0.538953C0.433382 0.548234 0.43558 0.555439 0.439976 0.560568C0.444373 0.565696 0.450234 0.568261 0.457561 0.568261Z" fill="#010202"/>
<path d="M0.505555 0.598423C0.503601 0.598423 0.502625 0.597446 0.502625 0.59537V0.507447C0.502625 0.505372 0.503601 0.504395 0.505555 0.504395C0.507509 0.504395 0.508486 0.505372 0.508486 0.507447V0.518438C0.510562 0.514042 0.513615 0.5105 0.517767 0.507936C0.521919 0.505372 0.526803 0.50415 0.532543 0.50415C0.538648 0.50415 0.543899 0.505616 0.548418 0.508424C0.552814 0.511233 0.556355 0.515263 0.558798 0.520514C0.56124 0.525765 0.562461 0.531871 0.562461 0.539075C0.562461 0.549699 0.559774 0.558247 0.554401 0.564475C0.549028 0.570703 0.541701 0.573878 0.532543 0.573878C0.526925 0.573878 0.521919 0.572657 0.517767 0.570093C0.513615 0.567528 0.51044 0.563987 0.508486 0.559591V0.595615C0.508486 0.597324 0.507509 0.598423 0.505555 0.598423ZM0.532421 0.568139C0.53987 0.568139 0.545731 0.565574 0.550005 0.560446C0.554279 0.555317 0.556477 0.548112 0.556477 0.538831C0.556477 0.52955 0.554279 0.522346 0.550005 0.517217C0.545731 0.512088 0.53987 0.509523 0.532421 0.509523C0.525094 0.509523 0.519232 0.512088 0.514836 0.517217C0.51044 0.522346 0.508242 0.52955 0.508242 0.538831C0.508242 0.548112 0.51044 0.555317 0.514836 0.560446C0.519232 0.565574 0.525094 0.568139 0.532421 0.568139Z" fill="#010202"/>
<path d="M0.608014 0.573756C0.598 0.573756 0.590063 0.570703 0.584323 0.564475C0.578462 0.558247 0.575653 0.549821 0.575653 0.539197C0.575653 0.532115 0.576996 0.526009 0.579561 0.520758C0.582247 0.515507 0.585911 0.511477 0.590551 0.508547C0.595192 0.505616 0.600687 0.50415 0.606792 0.50415C0.615463 0.50415 0.622301 0.506959 0.627064 0.512698C0.631948 0.518438 0.634268 0.526375 0.634268 0.536389C0.634268 0.538831 0.633291 0.540052 0.631216 0.540052H0.581515C0.581759 0.549089 0.584079 0.556049 0.588597 0.560934C0.593116 0.565819 0.599466 0.568261 0.607647 0.568261C0.611311 0.568261 0.614852 0.567772 0.618027 0.566795C0.621324 0.565819 0.624499 0.564109 0.627674 0.561545C0.628895 0.560568 0.629994 0.560323 0.630971 0.56069C0.631948 0.561056 0.632559 0.561789 0.632803 0.562766C0.633047 0.563743 0.632559 0.564842 0.631338 0.565819C0.628407 0.568261 0.624988 0.570093 0.620714 0.571558C0.616684 0.573023 0.61241 0.573756 0.608014 0.573756ZM0.60667 0.509401C0.599099 0.509401 0.593238 0.511844 0.589086 0.516606C0.584812 0.521491 0.582369 0.527474 0.581759 0.534801H0.628895C0.628651 0.526864 0.626575 0.520636 0.622912 0.516118C0.619248 0.511722 0.613753 0.509401 0.60667 0.509401Z" fill="#010202"/>
<path d="M0.65442 0.573512C0.652466 0.573512 0.651489 0.572535 0.651489 0.570459V0.50757C0.651489 0.505494 0.652466 0.504517 0.65442 0.504517C0.656252 0.504517 0.657229 0.505494 0.657229 0.50757V0.517827C0.659427 0.513309 0.662724 0.50989 0.666876 0.50757C0.67115 0.505249 0.67579 0.50415 0.681041 0.50415C0.697038 0.50415 0.705098 0.512698 0.705098 0.529795V0.570459C0.705098 0.572535 0.704121 0.573512 0.702167 0.573512C0.700213 0.573512 0.699236 0.572535 0.699236 0.570459V0.530405C0.699236 0.5232 0.697771 0.518072 0.694962 0.514652C0.692031 0.511355 0.687391 0.509646 0.681041 0.509646C0.673836 0.509646 0.668219 0.511844 0.663823 0.51624C0.659549 0.520636 0.657351 0.52662 0.657351 0.533947V0.570459C0.657351 0.572413 0.656374 0.573512 0.65442 0.573512Z" fill="#010202"/>
<path d="M0.728669 0.569982C0.726349 0.567662 0.72525 0.564609 0.72525 0.560701V0.486211C0.72525 0.482425 0.726349 0.479372 0.728669 0.477052C0.73099 0.474732 0.734042 0.473633 0.73795 0.473633C0.74198 0.473633 0.745155 0.474732 0.747475 0.477052C0.749795 0.479372 0.751017 0.482425 0.751017 0.486211V0.560701C0.751017 0.564609 0.749795 0.567662 0.747475 0.569982C0.745155 0.572302 0.74198 0.573401 0.73795 0.573401C0.734042 0.573401 0.73099 0.57218 0.728669 0.569982Z" fill="#010202"/>
<path d="M0.864446 0.477174C0.866644 0.479494 0.867743 0.482547 0.867743 0.486211V0.561922C0.867743 0.565463 0.866766 0.568272 0.86469 0.570226C0.862614 0.572302 0.859927 0.573279 0.85663 0.573279C0.853333 0.573279 0.850769 0.572302 0.848571 0.570226C0.846495 0.56815 0.845396 0.565341 0.845396 0.561922V0.521014L0.829521 0.550199C0.827933 0.55313 0.826224 0.555328 0.824514 0.556549C0.822804 0.55777 0.820606 0.558381 0.818286 0.558381C0.815844 0.558381 0.813768 0.55777 0.812058 0.556549C0.810349 0.555328 0.808639 0.55313 0.807051 0.550199L0.791299 0.521746V0.5618C0.791299 0.565219 0.7902 0.568028 0.788124 0.570104C0.786048 0.57218 0.783361 0.573279 0.779942 0.573279C0.776645 0.573279 0.77408 0.572302 0.771882 0.570226C0.769806 0.56815 0.768707 0.565341 0.768707 0.561922V0.486211C0.768707 0.482547 0.769806 0.479494 0.772126 0.477174C0.774447 0.474854 0.777255 0.473633 0.780797 0.473633C0.783361 0.473633 0.785559 0.474366 0.787635 0.475831C0.789711 0.477296 0.791421 0.479372 0.792764 0.482059L0.818408 0.530172L0.84393 0.482059C0.846861 0.476441 0.850647 0.473755 0.855653 0.473755C0.859317 0.473633 0.862248 0.474854 0.864446 0.477174Z" fill="#010202"/>
<path d="M0.885957 0.569982C0.883637 0.567662 0.882538 0.564609 0.882538 0.560701V0.486211C0.882538 0.482425 0.883637 0.479372 0.885957 0.477052C0.888277 0.474732 0.89133 0.473633 0.895238 0.473633C0.899268 0.473633 0.902443 0.474732 0.904763 0.477052C0.907083 0.479372 0.908182 0.482425 0.908182 0.486211V0.560701C0.908182 0.564609 0.906961 0.567662 0.904763 0.569982C0.902443 0.572302 0.899268 0.573401 0.895238 0.573401C0.89133 0.573401 0.888277 0.57218 0.885957 0.569982Z" fill="#010202"/>
<path d="M0.938087 0.571325C0.931737 0.569738 0.926486 0.567417 0.922457 0.564609C0.920869 0.563388 0.91977 0.562167 0.919037 0.560823C0.918305 0.55948 0.917938 0.557892 0.917938 0.555817C0.917938 0.553008 0.918793 0.550566 0.920503 0.548612C0.922212 0.546536 0.924166 0.545559 0.926364 0.545559C0.927585 0.545559 0.928684 0.545803 0.929783 0.546169C0.930882 0.546536 0.932348 0.547268 0.933935 0.548245C0.937721 0.550321 0.941506 0.551909 0.945292 0.552886C0.949078 0.553863 0.953352 0.554229 0.957992 0.554229C0.963487 0.554229 0.967639 0.553374 0.970448 0.551787C0.973256 0.550199 0.974722 0.547757 0.974722 0.544582C0.974722 0.542506 0.973379 0.540674 0.970814 0.539087C0.96825 0.537499 0.963121 0.536034 0.955672 0.534568C0.946513 0.532615 0.939308 0.530294 0.934057 0.527608C0.928807 0.524921 0.925265 0.521746 0.923189 0.518083C0.921113 0.514419 0.920014 0.510023 0.920014 0.504772C0.920014 0.498789 0.921724 0.493416 0.925265 0.488653C0.928806 0.483769 0.933691 0.480105 0.939797 0.477296C0.946025 0.47461 0.952863 0.473145 0.960556 0.473145C0.967273 0.473145 0.973379 0.473877 0.97863 0.475343C0.98388 0.476808 0.988765 0.479128 0.993161 0.482303C0.994871 0.483524 0.99597 0.484745 0.996703 0.486089C0.997435 0.487432 0.997802 0.489142 0.997802 0.490973C0.997802 0.493782 0.996947 0.496224 0.995359 0.498178C0.993772 0.500254 0.991818 0.501231 0.98962 0.501231C0.988399 0.501231 0.9873 0.501109 0.986323 0.500743C0.985346 0.500376 0.98388 0.499644 0.982049 0.498544C0.98156 0.4983 0.980217 0.497568 0.978141 0.496346C0.975943 0.495125 0.973379 0.49427 0.970448 0.493538C0.967517 0.492805 0.964342 0.492439 0.960923 0.492439C0.95616 0.492439 0.952375 0.493294 0.949566 0.495125C0.946635 0.496957 0.945292 0.499277 0.945292 0.50233C0.945292 0.50404 0.945781 0.505505 0.94688 0.506604C0.947856 0.507703 0.94981 0.508802 0.952619 0.509901C0.955428 0.511 0.95958 0.512099 0.964953 0.513198C0.973867 0.515152 0.980828 0.517472 0.985956 0.520281C0.991085 0.522968 0.994627 0.526143 0.996825 0.529806C0.998901 0.533469 1 0.537743 1 0.542628C1 0.548734 0.99829 0.554107 0.994871 0.558869C0.991452 0.56351 0.986689 0.567173 0.980461 0.569738C0.974233 0.572302 0.967151 0.573523 0.958969 0.573523C0.951276 0.573767 0.944437 0.572913 0.938087 0.571325Z" fill="#010202"/>
</g>
<defs>
<clipPath id="clip0_102_9338">
<rect width="1" height="1" fill="white"/>
</clipPath>
</defs>
</svg>
