<svg width="38" height="35" viewBox="0 0 38 35" fill="none" xmlns="http://www.w3.org/2000/svg">
<g clip-path="url(#clip0_75_9021)">
<path fill-rule="evenodd" clip-rule="evenodd" d="M7.91667 6.08093C6.8236 6.08093 5.9375 6.88168 5.9375 7.86945C5.9375 8.85723 6.8236 9.65798 7.91667 9.65798H30.0833C31.1764 9.65798 32.0625 8.85723 32.0625 7.86945C32.0625 6.88168 31.1764 6.08093 30.0833 6.08093H7.91667ZM5.9375 17.1698C5.9375 16.182 6.8236 15.3812 7.91667 15.3812H30.0833C31.1764 15.3812 32.0625 16.182 32.0625 17.1698C32.0625 18.1575 31.1764 18.9583 30.0833 18.9583H7.91667C6.8236 18.9583 5.9375 18.1575 5.9375 17.1698ZM5.9375 26.4701C5.9375 25.4823 6.8236 24.6816 7.91667 24.6816H30.0833C31.1764 24.6816 32.0625 25.4823 32.0625 26.4701C32.0625 27.4579 31.1764 28.2586 30.0833 28.2586H7.91667C6.8236 28.2586 5.9375 27.4579 5.9375 26.4701Z" fill="black"/>
</g>
<defs>
<clipPath id="clip0_75_9021">
<rect width="38" height="34.3396" fill="white"/>
</clipPath>
</defs>
</svg>
