<svg width="1" height="1" viewBox="0 0 1 1" fill="none" xmlns="http://www.w3.org/2000/svg">
<g clip-path="url(#clip0_75_9032)">
<path d="M0.223028 0.547054L0.340381 0.594435C0.346975 0.57685 0.350639 0.557068 0.350639 0.537773C0.350639 0.474396 0.312539 0.416879 0.255633 0.391968L0.206787 0.50871C0.206787 0.50871 0.216312 0.513472 0.221197 0.524096C0.22657 0.535453 0.223028 0.547054 0.223028 0.547054Z" fill="#B2D0D5"/>
<path d="M0.278466 0.628446C0.278466 0.628446 0.287014 0.620508 0.29483 0.609274C0.302401 0.598283 0.306919 0.587415 0.306919 0.587415L0.220706 0.552612C0.220706 0.552612 0.219363 0.555299 0.217531 0.557741C0.215333 0.56055 0.213379 0.562382 0.213379 0.562382L0.278466 0.628446Z" fill="#80B0B9"/>
<path d="M0.168507 0.562263C0.168507 0.562263 0.164355 0.5586 0.161547 0.553105C0.158616 0.547365 0.158128 0.542359 0.158128 0.541748L0.0314941 0.54187C0.0323489 0.58461 0.0506662 0.624298 0.0805845 0.653117L0.168507 0.562263Z" fill="#036475"/>
<path d="M0.157895 0.535103H0C0.00183173 0.430084 0.086946 0.346924 0.191477 0.346924C0.216388 0.346924 0.240445 0.351931 0.262303 0.360601L0.201368 0.506284C0.201368 0.506284 0.195262 0.504575 0.191599 0.504697C0.174625 0.505063 0.159727 0.51642 0.157895 0.535103Z" fill="#34818F"/>
<path d="M0.457531 0.573634C0.451425 0.573634 0.446052 0.572168 0.441533 0.56936C0.437015 0.566429 0.433596 0.562399 0.431154 0.55727C0.428711 0.552019 0.42749 0.545914 0.42749 0.538953C0.42749 0.53187 0.428711 0.525765 0.431154 0.520636C0.433596 0.515385 0.437137 0.511355 0.441533 0.508546C0.446052 0.505616 0.451303 0.504272 0.457531 0.504272C0.463758 0.504272 0.469009 0.505738 0.473528 0.508546C0.478046 0.511477 0.481465 0.515507 0.483907 0.520636C0.48635 0.525887 0.487571 0.531993 0.487571 0.538953C0.487571 0.546036 0.48635 0.552142 0.483907 0.55727C0.481465 0.562521 0.477924 0.566551 0.473528 0.56936C0.469009 0.572168 0.463636 0.573634 0.457531 0.573634ZM0.457531 0.568139C0.46498 0.568139 0.470841 0.565574 0.475115 0.560445C0.479389 0.555317 0.481587 0.548112 0.481587 0.538831C0.481587 0.52955 0.479389 0.522345 0.475115 0.517217C0.470841 0.512088 0.46498 0.509523 0.457531 0.509523C0.450204 0.509523 0.444342 0.512088 0.439946 0.517217C0.43555 0.522345 0.433352 0.52955 0.433352 0.538831C0.433352 0.548112 0.43555 0.555317 0.439946 0.560445C0.444342 0.565574 0.450204 0.568139 0.457531 0.568139Z" fill="#010202"/>
<path d="M0.505616 0.598423C0.503662 0.598423 0.502686 0.597446 0.502686 0.59537V0.507447C0.502686 0.505372 0.503662 0.504395 0.505616 0.504395C0.50757 0.504395 0.508547 0.505372 0.508547 0.507447V0.518438C0.510623 0.514042 0.513676 0.5105 0.517828 0.507936C0.52198 0.505372 0.526864 0.50415 0.532604 0.50415C0.53871 0.50415 0.54396 0.505616 0.548479 0.508424C0.552875 0.511233 0.556416 0.515263 0.558859 0.520514C0.561301 0.525765 0.562522 0.531871 0.562522 0.539075C0.562522 0.549699 0.559835 0.558247 0.554462 0.564475C0.549089 0.570703 0.541762 0.573878 0.532604 0.573878C0.526986 0.573878 0.52198 0.572657 0.517828 0.570093C0.513676 0.567528 0.510501 0.563987 0.508547 0.559591V0.595615C0.508547 0.597324 0.50757 0.598423 0.505616 0.598423ZM0.532482 0.568139C0.539931 0.568139 0.545792 0.565574 0.550066 0.560446C0.55434 0.555317 0.556538 0.548112 0.556538 0.538831C0.556538 0.52955 0.55434 0.522346 0.550066 0.517217C0.545792 0.512088 0.539931 0.509523 0.532482 0.509523C0.525155 0.509523 0.519293 0.512088 0.514897 0.517217C0.510501 0.522346 0.508303 0.52955 0.508303 0.538831C0.508303 0.548112 0.510501 0.555317 0.514897 0.560446C0.519293 0.565574 0.525155 0.568139 0.532482 0.568139Z" fill="#010202"/>
<path d="M0.608044 0.573634C0.598031 0.573634 0.590093 0.570581 0.584354 0.564353C0.578492 0.558125 0.575684 0.549699 0.575684 0.539075C0.575684 0.531993 0.577027 0.525887 0.579591 0.520636C0.582278 0.515385 0.585941 0.511355 0.590582 0.508424C0.595222 0.505494 0.600717 0.504028 0.606823 0.504028C0.615493 0.504028 0.622332 0.506837 0.627094 0.512576C0.631979 0.518316 0.634299 0.526253 0.634299 0.536267C0.634299 0.538709 0.633322 0.53993 0.631246 0.53993H0.581545C0.581789 0.548967 0.58411 0.555927 0.588628 0.560812C0.593146 0.565696 0.599496 0.568139 0.607678 0.568139C0.611341 0.568139 0.614883 0.56765 0.618058 0.566673C0.621355 0.565697 0.62453 0.563987 0.627705 0.561422C0.628926 0.560446 0.630025 0.560201 0.631002 0.560568C0.631979 0.560934 0.632589 0.561667 0.632834 0.562644C0.633078 0.563621 0.632589 0.56472 0.631368 0.565696C0.628437 0.568139 0.625018 0.569971 0.620744 0.571436C0.616714 0.572901 0.61244 0.573634 0.608044 0.573634ZM0.606701 0.509279C0.59913 0.509279 0.593268 0.511722 0.589116 0.516484C0.584842 0.521369 0.5824 0.527352 0.581789 0.534679H0.628926C0.628682 0.526742 0.626606 0.520514 0.622942 0.515996C0.619279 0.511599 0.613784 0.509279 0.606701 0.509279Z" fill="#010202"/>
<path d="M0.654298 0.57339C0.652344 0.57339 0.651367 0.572413 0.651367 0.570337V0.507448C0.651367 0.505372 0.652344 0.504395 0.654298 0.504395C0.65613 0.504395 0.657107 0.505372 0.657107 0.507448V0.517705C0.659305 0.513187 0.662602 0.509768 0.666754 0.507448C0.671028 0.505127 0.675668 0.504028 0.680919 0.504028C0.696916 0.504028 0.704976 0.512576 0.704976 0.529673V0.570337C0.704976 0.572413 0.703999 0.57339 0.702045 0.57339C0.700091 0.57339 0.699114 0.572413 0.699114 0.570337V0.530283C0.699114 0.523078 0.697649 0.517949 0.69484 0.51453C0.691909 0.511233 0.687269 0.509524 0.680919 0.509524C0.673714 0.509524 0.668097 0.511722 0.663701 0.516118C0.659427 0.520514 0.657229 0.526498 0.657229 0.533824V0.570337C0.657229 0.572291 0.656252 0.57339 0.654298 0.57339Z" fill="#010202"/>
<path d="M0.728761 0.569982C0.726441 0.567662 0.725342 0.564609 0.725342 0.560701V0.486211C0.725342 0.482425 0.726441 0.479372 0.728761 0.477052C0.731081 0.474732 0.734134 0.473633 0.738042 0.473633C0.742072 0.473633 0.745247 0.474732 0.747567 0.477052C0.749887 0.479372 0.751108 0.482425 0.751108 0.486211V0.560701C0.751108 0.564609 0.749887 0.567662 0.747567 0.569982C0.745247 0.572302 0.742072 0.573401 0.738042 0.573401C0.734134 0.573401 0.731081 0.57218 0.728761 0.569982Z" fill="#010202"/>
<path d="M0.864537 0.477174C0.866735 0.479494 0.867834 0.482547 0.867834 0.486211V0.561922C0.867834 0.565463 0.866857 0.568272 0.864781 0.570226C0.862705 0.572302 0.860019 0.573279 0.856722 0.573279C0.853425 0.573279 0.85086 0.572302 0.848662 0.570226C0.846586 0.56815 0.845487 0.565341 0.845487 0.561922V0.521014L0.829612 0.550199C0.828025 0.55313 0.826315 0.555328 0.824605 0.556549C0.822896 0.55777 0.820698 0.558381 0.818378 0.558381C0.815935 0.558381 0.813859 0.55777 0.81215 0.556549C0.81044 0.555328 0.808731 0.55313 0.807143 0.550199L0.79139 0.521746V0.5618C0.79139 0.565219 0.790291 0.568028 0.788215 0.570104C0.786139 0.57218 0.783453 0.573279 0.780033 0.573279C0.776736 0.573279 0.774172 0.572302 0.771974 0.570226C0.769898 0.56815 0.768799 0.565341 0.768799 0.561922V0.486211C0.768799 0.482547 0.769898 0.479494 0.772218 0.477174C0.774538 0.474854 0.777347 0.473633 0.780888 0.473633C0.783453 0.473633 0.785651 0.474366 0.787727 0.475831C0.789803 0.477296 0.791512 0.479372 0.792856 0.482059L0.8185 0.530172L0.844022 0.482059C0.846953 0.476441 0.850738 0.473755 0.855745 0.473755C0.859408 0.473633 0.862339 0.474854 0.864537 0.477174Z" fill="#010202"/>
<path d="M0.885988 0.569982C0.883667 0.567662 0.882568 0.564609 0.882568 0.560701V0.486211C0.882568 0.482425 0.883667 0.479372 0.885988 0.477052C0.888308 0.474732 0.891361 0.473633 0.895268 0.473633C0.899298 0.473633 0.902473 0.474732 0.904793 0.477052C0.907114 0.479372 0.908213 0.482425 0.908213 0.486211V0.560701C0.908213 0.564609 0.906991 0.567662 0.904793 0.569982C0.902473 0.572302 0.899298 0.573401 0.895268 0.573401C0.891361 0.573401 0.888308 0.57218 0.885988 0.569982Z" fill="#010202"/>
<path d="M0.938118 0.571325C0.931768 0.569738 0.926517 0.567417 0.922487 0.564609C0.9209 0.563388 0.9198 0.562167 0.919068 0.560823C0.918335 0.55948 0.917969 0.557892 0.917969 0.555817C0.917969 0.553008 0.918824 0.550566 0.920533 0.548612C0.922243 0.546536 0.924197 0.545559 0.926395 0.545559C0.927616 0.545559 0.928715 0.545803 0.929814 0.546169C0.930913 0.546536 0.932378 0.547268 0.933966 0.548245C0.937751 0.550321 0.941537 0.551909 0.945323 0.552886C0.949108 0.553863 0.953382 0.554229 0.958023 0.554229C0.963518 0.554229 0.96767 0.553374 0.970478 0.551787C0.973287 0.550199 0.974752 0.547757 0.974752 0.544582C0.974752 0.542506 0.973409 0.540674 0.970845 0.539087C0.96828 0.537499 0.963151 0.536034 0.955702 0.534568C0.946544 0.532615 0.939339 0.530294 0.934088 0.527608C0.928837 0.524921 0.925296 0.521746 0.92322 0.518083C0.921144 0.514419 0.920045 0.510023 0.920045 0.504772C0.920045 0.498789 0.921754 0.493416 0.925296 0.488653C0.928837 0.483769 0.933722 0.480105 0.939827 0.477296C0.946055 0.47461 0.952894 0.473145 0.960587 0.473145C0.967303 0.473145 0.973409 0.473877 0.97866 0.475343C0.983911 0.476808 0.988796 0.479128 0.993192 0.482303C0.994901 0.483524 0.996 0.484745 0.996733 0.486089C0.997466 0.487432 0.997832 0.489142 0.997832 0.490973C0.997832 0.493782 0.996977 0.496224 0.99539 0.498178C0.993802 0.500254 0.991848 0.501231 0.98965 0.501231C0.988429 0.501231 0.98733 0.501109 0.986353 0.500743C0.985376 0.500376 0.983911 0.499644 0.982079 0.498544C0.981591 0.4983 0.980247 0.497568 0.978172 0.496346C0.975973 0.495125 0.973409 0.49427 0.970478 0.493538C0.967548 0.492805 0.964373 0.492439 0.960953 0.492439C0.956191 0.492439 0.952405 0.493294 0.949597 0.495125C0.946666 0.496957 0.945323 0.499277 0.945323 0.50233C0.945323 0.50404 0.945811 0.505505 0.94691 0.506604C0.947887 0.507703 0.949841 0.508802 0.952649 0.509901C0.955458 0.511 0.95961 0.512099 0.964983 0.513198C0.973898 0.515152 0.980858 0.517472 0.985987 0.520281C0.991116 0.522968 0.994657 0.526143 0.996855 0.529806C0.998931 0.533469 1.00003 0.537743 1.00003 0.542628C1.00003 0.548734 0.998321 0.554107 0.994901 0.558869C0.991482 0.56351 0.98672 0.567173 0.980492 0.569738C0.974264 0.572302 0.967181 0.573523 0.958999 0.573523C0.951306 0.573767 0.944468 0.572913 0.938118 0.571325Z" fill="#010202"/>
</g>
<defs>
<clipPath id="clip0_75_9032">
<rect width="1" height="1" fill="white"/>
</clipPath>
</defs>
</svg>
