<svg width="39" height="38" viewBox="0 0 39 38" fill="none" xmlns="http://www.w3.org/2000/svg">
<g clip-path="url(#clip0_124_8341)">
<path fill-rule="evenodd" clip-rule="evenodd" d="M19.5 0.791748C15.2371 0.791748 11.7812 4.15894 11.7812 8.31258C11.7812 12.4662 15.2371 15.8334 19.5 15.8334C23.7629 15.8334 27.2188 12.4662 27.2188 8.31258C27.2188 4.15894 23.7629 0.791748 19.5 0.791748ZM15.0312 8.31258C15.0312 5.90784 17.032 3.95841 19.5 3.95841C21.968 3.95841 23.9688 5.90784 23.9688 8.31258C23.9688 10.7173 21.968 12.6667 19.5 12.6667C17.032 12.6667 15.0312 10.7173 15.0312 8.31258Z" fill="black"/>
<path d="M2.4375 29.2917C2.4375 25.7727 6.71935 19.0001 19.5 19.0001C20.3975 19.0001 21.125 19.709 21.125 20.5834C21.125 21.4579 20.3975 22.1667 19.5 22.1667C7.90565 22.1667 5.6875 28.0608 5.6875 29.2917C5.6875 30.1194 5.96356 30.6861 6.32874 31.042C6.69391 31.3978 7.27553 31.6667 8.125 31.6667H17.875C18.7725 31.6667 19.5 32.3756 19.5 33.2501C19.5 34.1245 18.7725 34.8334 17.875 34.8334H8.125C6.53697 34.8334 5.08734 34.3107 4.03064 33.2811C2.97394 32.2515 2.4375 30.8391 2.4375 29.2917Z" fill="black"/>
<path d="M30.0625 20.5834C30.96 20.5834 31.6875 21.2923 31.6875 22.1667V26.1251H35.75C36.6475 26.1251 37.375 26.834 37.375 27.7084C37.375 28.5829 36.6475 29.2917 35.75 29.2917H31.6875V33.2501C31.6875 34.1245 30.96 34.8334 30.0625 34.8334C29.165 34.8334 28.4375 34.1245 28.4375 33.2501V29.2917H24.375C23.4775 29.2917 22.75 28.5829 22.75 27.7084C22.75 26.834 23.4775 26.1251 24.375 26.1251H28.4375V22.1667C28.4375 21.2923 29.165 20.5834 30.0625 20.5834Z" fill="black"/>
</g>
<defs>
<clipPath id="clip0_124_8341">
<rect width="39" height="38" fill="white"/>
</clipPath>
</defs>
</svg>
