<svg width="39" height="38" viewBox="0 0 39 38" fill="none" xmlns="http://www.w3.org/2000/svg">
<g clip-path="url(#clip0_75_7969)">
<path fill-rule="evenodd" clip-rule="evenodd" d="M19.5 0.791626C15.2371 0.791626 11.7812 4.15882 11.7812 8.31246C11.7812 12.4661 15.2371 15.8333 19.5 15.8333C23.7629 15.8333 27.2188 12.4661 27.2188 8.31246C27.2188 4.15882 23.7629 0.791626 19.5 0.791626ZM15.0312 8.31246C15.0312 5.90772 17.032 3.95829 19.5 3.95829C21.968 3.95829 23.9688 5.90772 23.9688 8.31246C23.9688 10.7172 21.968 12.6666 19.5 12.6666C17.032 12.6666 15.0312 10.7172 15.0312 8.31246Z" fill="black"/>
<path d="M2.4375 29.2916C2.4375 25.7726 6.71935 19 19.5 19C20.3975 19 21.125 19.7088 21.125 20.5833C21.125 21.4577 20.3975 22.1666 19.5 22.1666C7.90565 22.1666 5.6875 28.0607 5.6875 29.2916C5.6875 30.1193 5.96356 30.686 6.32874 31.0418C6.69391 31.3976 7.27553 31.6666 8.125 31.6666H17.875C18.7725 31.6666 19.5 32.3755 19.5 33.25C19.5 34.1244 18.7725 34.8333 17.875 34.8333H8.125C6.53697 34.8333 5.08734 34.3106 4.03064 33.281C2.97394 32.2514 2.4375 30.8389 2.4375 29.2916Z" fill="black"/>
<path d="M30.0625 20.5833C30.96 20.5833 31.6875 21.2922 31.6875 22.1666V26.125H35.75C36.6475 26.125 37.375 26.8338 37.375 27.7083C37.375 28.5827 36.6475 29.2916 35.75 29.2916H31.6875V33.25C31.6875 34.1244 30.96 34.8333 30.0625 34.8333C29.165 34.8333 28.4375 34.1244 28.4375 33.25V29.2916H24.375C23.4775 29.2916 22.75 28.5827 22.75 27.7083C22.75 26.8338 23.4775 26.125 24.375 26.125H28.4375V22.1666C28.4375 21.2922 29.165 20.5833 30.0625 20.5833Z" fill="black"/>
</g>
<defs>
<clipPath id="clip0_75_7969">
<rect width="39" height="38" fill="white"/>
</clipPath>
</defs>
</svg>
